# xmcd
#
# Track frame offsets:
# 150
# 15682
# 27116
# 43141
# 56523
# 69087
# 87271
# 100055
# 114664
# 128002
# 140824
# 154321
#
# Disc length: 2208 seconds
#
#
# Revision: 0
# Processed by: cddbd v1.5.1PL0 Copyright (c) Steve Scherf et al.
# Submitted via: FreeRIP 2.70 
#
DISCID=9c089e0c
DTITLE=Tião Carreiro e Paraíso - Prato do Dia
DYEAR=1981
DGENRE=Sertanejo Raiz
TTITLE0=Boiadeiro e Boi Também
TTITLE1=Pagode do Pai Tomé
TTITLE2=Prato do Dia
TTITLE3=Palavra de Honra
TTITLE4=Meu Inimigos Também São Filhos de Deus
TTITLE5=Sombra do Desengano
TTITLE6=Amor de Praia
TTITLE7=Parede e Meia
TTITLE8=Nos Braços da Solidão
TTITLE9=Uma Flor e Uma Santa
TTITLE10=Palco do Mundo
TTITLE11=Amor de Uma Noite
EXTD=By Max
EXTT0=
EXTT1=
EXTT2=
EXTT3=
EXTT4=
EXTT5=
EXTT6=
EXTT7=
EXTT8=
EXTT9=
EXTT10=
EXTT11=
PLAYORDER=
